<svg width="24" height="24" viewBox="0 0 24 24" fill="none" xmlns="http://www.w3.org/2000/svg">
<path fill-rule="evenodd" clip-rule="evenodd" d="M11.8594 1C9.23602 1 7.10938 3.12665 7.10938 5.75V6.75H4.68037C3.62848 6.75 2.75637 7.5648 2.68498 8.61426L2.00471 18.6143C1.92611 19.7696 2.84209 20.75 4.00009 20.75H19.7187C20.8767 20.75 21.7927 19.7696 21.7141 18.6143L21.0339 8.61426C20.9625 7.5648 20.0903 6.75 19.0385 6.75H16.6094V5.75C16.6094 3.12665 14.4827 1 11.8594 1ZM15.1094 8.25V10.75C15.1094 11.1642 15.4452 11.5 15.8594 11.5C16.2736 11.5 16.6094 11.1642 16.6094 10.75V8.25H19.0385C19.3014 8.25 19.5195 8.4537 19.5373 8.71606L20.2176 18.7161C20.2372 19.0049 20.0082 19.25 19.7187 19.25H4.00009C3.71059 19.25 3.4816 19.0049 3.50125 18.7161L4.18152 8.71607C4.19937 8.4537 4.4174 8.25 4.68037 8.25H7.10938V10.75C7.10938 11.1642 7.44516 11.5 7.85938 11.5C8.27359 11.5 8.60938 11.1642 8.60938 10.75V8.25H15.1094ZM15.1094 6.75V5.75C15.1094 3.95507 13.6543 2.5 11.8594 2.5C10.0644 2.5 8.60938 3.95507 8.60938 5.75V6.75H15.1094Z" fill="#302B2A"/>
</svg>
