<svg width="24" height="19" viewBox="0 0 24 19" fill="none" xmlns="http://www.w3.org/2000/svg">
<path d="M10.9603 3.9218C10.2499 2.8354 8.17667 1.34414 5.89677 2.03241C3.60395 2.72069 1.26592 4.84624 2.1443 8.15941C3.25518 12.3498 6.36825 13.5509 9.52652 15.7237C10.3984 16.3242 11.1283 16.8708 11.5029 17.3702C11.7935 17.7615 12.3489 17.883 12.5233 17.7615C13.0206 17.4106 14.1057 16.3445 15.0034 15.7979C18.194 13.8748 21.8044 12.4713 22.799 8.24713C23.6257 4.73153 21.3652 1.86372 18.3232 1.18219C14.9776 0.433187 13.2338 2.12688 12.3102 3.83408C11.8452 4.69105 11.6514 5.05543 11.6514 5.05543" fill="#F2D9D3"/>
<path d="M11.6901 3.83384C11.0055 2.65297 9.19065 0.392462 5.67714 1.18195C2.48012 1.89722 0.439186 4.88649 1.13672 7.97024C2.13781 12.4103 6.05175 14.0163 9.40378 16.0339C10.3467 16.6074 11.0443 17.2822 11.477 17.7613C11.7612 18.0784 12.2391 18.0784 12.5233 17.7613C12.956 17.2822 13.6536 16.6142 14.5965 16.0339C17.9486 14.0163 21.8625 12.4103 22.8636 7.97024C23.5611 4.88649 21.5137 1.89722 18.3167 1.18195C14.8032 0.392462 12.9689 2.63948 12.3037 3.83384C11.8129 4.72455 11.6449 5.05519 11.6449 5.05519" stroke="#7F7873" stroke-width="0.5" stroke-miterlimit="10" stroke-linecap="round" stroke-linejoin="round"/>
<path d="M2.14451 8.15946C2.14451 8.15946 0.81403 3.84762 5.66447 2.10669" stroke="#7F7873" stroke-width="0.5" stroke-miterlimit="10"/>
</svg>
