<svg width="1029" height="112" viewBox="0 0 1029 112" fill="none" xmlns="http://www.w3.org/2000/svg">
<g filter="url(#filter0_d)">
<rect x="18" y="7" width="993" height="96" fill="white"/>
</g>
<rect y="7" width="1029" height="96" fill="white"/>
<path fill-rule="evenodd" clip-rule="evenodd" d="M448.395 46.2719C450.651 44.0982 453.706 43.0113 457.56 43.0113C460.266 42.8995 462.94 43.621 465.212 45.076C466.126 45.6327 466.88 46.4108 467.404 47.3364C467.928 48.2621 468.204 49.3046 468.205 50.3649H464.668C464.687 49.532 464.513 48.7059 464.159 47.9494C463.806 47.1929 463.282 46.526 462.628 45.9995C461.174 44.8253 459.336 44.2162 457.459 44.2868C456.227 44.2372 455 44.4742 453.878 44.9788C452.755 45.4834 451.768 46.2413 450.997 47.1916C449.319 49.4082 448.477 52.1339 448.617 54.8982C448.467 57.7449 449.381 60.5469 451.185 62.7726C452.051 63.7499 453.13 64.5216 454.341 65.0303C455.551 65.539 456.863 65.7717 458.177 65.711C459.49 65.7244 460.796 65.5068 462.032 65.0685C463.085 64.7161 464.036 64.1169 464.804 63.3221V56.3415H457.016V54.7639H468.273V63.3269C467.236 64.5742 465.862 65.5053 464.31 66.0121C462.385 66.6895 460.352 67.0196 458.309 66.9865C454.183 66.9865 450.935 65.8897 448.565 63.6961C447.374 62.5634 446.44 61.1928 445.828 59.6757C445.215 58.1586 444.937 56.5298 445.012 54.8982C444.941 53.3074 445.205 51.7194 445.787 50.2345C446.37 48.7497 447.258 47.4004 448.395 46.2719ZM476.916 66.7352V43.2625H494.838V44.8382H480.385V53.9593H492.934V55.5359H480.385V65.1596H494.838V66.7352H476.916ZM512.417 55.815C514.052 55.8922 515.656 55.3553 516.907 54.3122C517.469 53.8138 517.912 53.1992 518.206 52.5124C518.5 51.8255 518.636 51.0831 518.607 50.3381C518.638 49.5967 518.503 48.8577 518.212 48.1736C517.921 47.4895 517.481 46.8772 516.923 46.3803C515.675 45.3456 514.077 44.8147 512.45 44.8938H506.532V55.815H512.417ZM503.101 43.2625H512.731C515.196 43.1422 517.633 43.8189 519.673 45.1901C520.503 45.7632 521.176 46.5298 521.634 47.4219C522.091 48.314 522.318 49.3039 522.295 50.3036C522.317 51.3055 522.09 52.2975 521.633 53.1922C521.175 54.0869 520.502 54.8568 519.673 55.4343C517.649 56.8132 515.222 57.4966 512.765 57.3791H506.571V66.7352H503.101V43.2625ZM533.276 43.2625V57.8596C533.239 58.8234 533.415 59.7835 533.793 60.6731C534.17 61.5626 534.739 62.3603 535.461 63.0104C537.059 64.3691 539.124 65.0713 541.23 64.9726C543.321 65.0693 545.369 64.3662 546.948 63.0095C547.665 62.3568 548.23 61.5583 548.605 60.669C548.979 59.7797 549.153 58.8209 549.116 57.8586V43.2625H550.891V57.7925C550.941 59.0486 550.706 60.2998 550.204 61.455C549.702 62.6102 548.946 63.6402 547.989 64.47C545.847 66.2196 543.12 67.1169 540.343 66.9865C537.559 67.1228 534.824 66.2251 532.677 64.47C531.726 63.6376 530.973 62.6067 530.474 61.4518C529.975 60.297 529.742 59.0471 529.792 57.7925V43.2625H533.276ZM569.486 55.1907C571.105 55.2736 572.701 54.79 573.994 53.825C574.55 53.3701 574.992 52.7937 575.284 52.1413C575.576 51.4889 575.711 50.7784 575.677 50.0657C575.706 49.3415 575.569 48.6202 575.278 47.955C574.986 47.2898 574.547 46.6976 573.994 46.222C572.735 45.209 571.142 44.6924 569.52 44.772H563.602V55.1907H569.486ZM560.044 43.2625H569.714C572.18 43.1427 574.621 43.8003 576.685 45.1403C577.509 45.6833 578.183 46.4224 578.643 47.2896C579.102 48.1569 579.334 49.1244 579.316 50.1031C579.333 50.8353 579.203 51.5636 578.933 52.2457C578.663 52.9279 578.259 53.5504 577.744 54.0773C576.553 55.2414 575.046 56.0407 573.405 56.3789L580 66.7352H576.139L569.749 56.7759H563.533V66.7352H560.048L560.044 43.2625Z" fill="#333333"/>
<defs>
<filter id="filter0_d" x="10" y="0" width="1009" height="112" filterUnits="userSpaceOnUse" color-interpolation-filters="sRGB">
<feFlood flood-opacity="0" result="BackgroundImageFix"/>
<feColorMatrix in="SourceAlpha" type="matrix" values="0 0 0 0 0 0 0 0 0 0 0 0 0 0 0 0 0 0 127 0"/>
<feOffset dy="1"/>
<feGaussianBlur stdDeviation="4"/>
<feColorMatrix type="matrix" values="0 0 0 0 0 0 0 0 0 0 0 0 0 0 0 0 0 0 0.1 0"/>
<feBlend mode="normal" in2="BackgroundImageFix" result="effect1_dropShadow"/>
<feBlend mode="normal" in="SourceGraphic" in2="effect1_dropShadow" result="shape"/>
</filter>
</defs>
</svg>
