<svg width="24" height="24" viewBox="0 0 24 24" fill="none" xmlns="http://www.w3.org/2000/svg">
<path d="M10.9603 6.9218C10.2499 5.8354 8.17667 4.34414 5.89677 5.03241C3.60395 5.72069 1.26592 7.84624 2.1443 11.1594C3.25518 15.3498 6.36825 16.5509 9.52652 18.7237C10.3984 19.3242 11.1283 19.8708 11.5029 20.3702C11.7935 20.7615 12.3489 20.883 12.5233 20.7615C13.0206 20.4106 14.1057 19.3445 15.0034 18.7979C18.194 16.8748 21.8044 15.4713 22.799 11.2471C23.6257 7.73153 21.3652 4.86372 18.3232 4.18219C14.9776 3.43319 13.2338 5.12688 12.3102 6.83408C11.8452 7.69105 11.6514 8.05543 11.6514 8.05543" fill="#F2D9D3"/>
<path d="M11.6901 6.83384C11.0055 5.65297 9.19065 3.39246 5.67714 4.18195C2.48012 4.89722 0.439186 7.88649 1.13672 10.9702C2.13781 15.4103 6.05175 17.0163 9.40378 19.0339C10.3467 19.6074 11.0443 20.2822 11.477 20.7613C11.7612 21.0784 12.2391 21.0784 12.5233 20.7613C12.956 20.2822 13.6536 19.6142 14.5965 19.0339C17.9486 17.0163 21.8625 15.4103 22.8636 10.9702C23.5611 7.88649 21.5137 4.89722 18.3167 4.18195C14.8032 3.39246 12.9689 5.63948 12.3037 6.83384C11.8129 7.72455 11.6449 8.05519 11.6449 8.05519" stroke="#7F7873" stroke-width="0.5" stroke-miterlimit="10" stroke-linecap="round" stroke-linejoin="round"/>
<path d="M2.14451 11.1595C2.14451 11.1595 0.81403 6.84762 5.66447 5.10669" stroke="#7F7873" stroke-width="0.5" stroke-miterlimit="10"/>
</svg>
